<svg width="24" height="24" viewBox="0 0 24 24" fill="none" xmlns="http://www.w3.org/2000/svg">
<path d="M10.9091 3.27273V0H13.0909V3.27273H10.9091ZM10.9091 24V20.7273H13.0909V24H10.9091ZM20.7273 13.0909V10.9091H24V13.0909H20.7273ZM0 13.0909V10.9091H3.27273V13.0909H0ZM19.3091 6.21818L17.7818 4.69091L19.6909 2.72727L21.2727 4.30909L19.3091 6.21818ZM4.30909 21.2727L2.72727 19.6909L4.69091 17.7818L6.21818 19.3091L4.30909 21.2727ZM19.6909 21.2727L17.7818 19.3091L19.3091 17.7818L21.2727 19.6909L19.6909 21.2727ZM4.69091 6.21818L2.72727 4.30909L4.30909 2.72727L6.21818 4.69091L4.69091 6.21818ZM12 18.5455C10.1818 18.5455 8.63636 17.9091 7.36364 16.6364C6.09091 15.3636 5.45455 13.8182 5.45455 12C5.45455 10.1818 6.09091 8.63636 7.36364 7.36364C8.63636 6.09091 10.1818 5.45455 12 5.45455C13.8182 5.45455 15.3636 6.09091 16.6364 7.36364C17.9091 8.63636 18.5455 10.1818 18.5455 12C18.5455 13.8182 17.9091 15.3636 16.6364 16.6364C15.3636 17.9091 13.8182 18.5455 12 18.5455Z" fill="currentColor" />
</svg>
